<svg id="Layer_1" data-name="Layer 1" xmlns="http://www.w3.org/2000/svg" viewBox="0 0 1367.91 769.85"><defs><style>.cls-1{opacity:0.6;}.cls-2{fill:#fff;}.cls-2,.cls-3{stroke:#231f20;stroke-miterlimit:10;}</style></defs><title>guitar_svg</title><g class="cls-1"><path class="cls-2" d="M.09,723.32v-120c6.27.73,12.52,1.7,18.81,2.15,27.92,2,55.82,4.71,83.77,5.53a812.08,812.08,0,0,0,141.92-8.79c32.85-4.82,65.51-11,98.2-16.8,11.45-2.05,22.75-4.9,34.71-7.51v29.44l1.91.25a80.59,80.59,0,0,0,2-7.89c1.07-6.88,1.76-13.82,3-20.66a6,6,0,0,1,3.54-3.78c4.52-1.46,9.24-2.26,13.86-3.45,11.17-2.89,22.33-5.86,34.1-9-.52,25.9-1,51.22-1.55,76.54l2,.75c1.16-1.65,3.1-3.19,3.38-5,3.62-23.58,7.16-47.18,10.32-70.83.56-4.26,2-6.06,6.05-7.22,23.24-6.6,46.48-13.24,69.55-20.39q43.9-13.62,87.53-28.08c41.85-13.9,83.5-28.4,125.37-42.24,42.17-13.93,84.39-27.72,126.8-40.89q42.64-13.25,85.92-24.48c29.13-7.63,58.38-15,87.89-20.93,32.39-6.47,65.09-11.5,97.76-16.42,17.18-2.58,34.59-3.69,51.91-5.21,2.15-.19,5.42.44,6.45,1.9,1.85,2.62,2.38,6.16,3.4,9.15-.54.42-.69.63-.81.61-.67-.09-1.33-.23-2-.35-19.08-3.37-37.33-1-54.54,8.1-3.71,2-7.87,5-6.37,9.29,1,2.92,5.57,4.6,8.57,6.81.24.18.66.12,1,.17a110.89,110.89,0,0,0,58.29-6.1c7.22-2.79,9.32-8.71,6.65-16.15-1.66-4.61-3.2-9.26-5.09-14.78,8.92,1.19,17.47-3.7,25.2,2.72,1.1.91,2.85,1.08,4.33,1.45,14.59,3.63,29.45,3.66,44.28,2.69,6.52-.42,13.36-1,18.44-6.36a4.57,4.57,0,0,1,3.29-.84q26,2,52.07,4.19c4.55.38,9.09.84,13.64,1.26.1-.53.2-1.05.31-1.57a14.14,14.14,0,0,0-3.34-1.25c-17.82-1.78-35.62-4.09-53.5-4.95-8.07-.4-13.25-2.21-15.24-10.48-.63-2.58-2.31-4.92-3.59-7.33-3.2-6.05-6.45-12.07-9.68-18.1l.89-1.73,84.08,13.45a6.83,6.83,0,0,0-4.52-2.71c-26.36-4.47-52.74-8.83-79.09-13.41a7.7,7.7,0,0,1-4.82-3.45c-3-5.5-5.44-11.27-8.54-17.86-19.2,3.24-38.41,6-57.42,9.82-16.21,3.21-32.19,6.32-48.93,6.67-30.52.65-61.14,2-91.46,5.36-38.75,4.33-77.25,11-115.85,16.65-6.78,1-13.53,2.25-20.78,3.47,1.51-20.62,3-40.48,4.45-60.55,4.94-.6,9.5-1.2,14.06-1.68,11.37-1.21,22.75-2.32,34.12-3.57,2.92-.32,4.34.73,4.94,3.64a67.88,67.88,0,0,0,2.82,9.81c.44,1.2,1.81,2.05,2.76,3.05.45-1.31,1.34-2.64,1.29-3.93-.17-4.35-.67-8.7-1.09-13.56l48-3.07c.67,2.2,1.14,3.84,1.65,5.46,3.47,11,6.88,22.11,10.5,33.1.5,1.51,2.11,2.65,3.21,4l1.44-1-3.58-41.9c104.74-3.57,207,6.56,306.92,37.52a11,11,0,0,0-4.71-2.78c-11.72-3.53-23.43-7.15-35.22-10.45A718.15,718.15,0,0,0,1209,266.47c-31.88-3.43-64-4.54-96-6.68-1.7-.12-4.78,0-4.87-.43-1.34-6.52-2.27-13.13-3.29-19.71,4.62-.82,2.21-4.06,2-6.34-.47-6.53-1.16-13.05-1.79-20l15.87,1.14c-.74-11.75-1.45-23-2.15-34.21a247.79,247.79,0,0,1,12,22c9,17.78,18,35.58,27.22,53.26,1.21,2.32,3.75,4,5.68,5.91l1.46-1c-1-13.2-2-26.39-3.1-40.21a845,845,0,0,1,103.52,22.94A1008.87,1008.87,0,0,1,1365.55,278c-66.44-30.54-136-50.47-209-62.51,1,11.73,2,22.56,3,34.82-1.85-3.12-3.21-5.16-4.31-7.34-12.24-24.18-24.41-48.39-36.73-72.53-.82-1.6-2.76-2.63-4.18-3.92l-1.21.84c.88,14.18,1.75,28.36,2.64,42.75l-15.27-1.27c.63,6.17,1.2,11.72,1.77,17.32l-4.42-.44c.73,5.43,1.39,10.43,2.22,16.6-9.5-20.52-18.6-39.84-27.39-59.31-5.11-11.33-9.67-22.92-14.58-34.34a53.66,53.66,0,0,0-3.53-5.94l-1.45.71c1.48,20.61,3,41.22,4.48,62.27h-9.13c1.86,18.17,3.66,35.9,5.47,53.58-5.53,1-5.63,1-6.74-2.33-5.86-17.71-12-35.33-17.43-53.18-8.67-28.5-16.82-57.16-25.27-85.73a26.31,26.31,0,0,0-2.51-4.7l-1.61.55c2.42,29.93,4.84,59.87,7.32,90.58h-15c.45,9.37.86,18,1.29,26.93h-5.46c1.23,8,2.41,15.56,3.59,23.16a9.41,9.41,0,0,1-4-5.1c-7.43-26.18-14.85-52.37-22.09-78.61-5.67-20.51-11-41.09-16.71-61.6-.49-1.78-2.18-3.22-3.32-4.83l-1.84.83q2.77,49.61,5.54,99.09L844.05,211.1l-4-14.07-2,.35c-.55,4.93-1.09,9.86-1.64,14.86l-41.28,4c-2-15.78-3.83-30.66-5.68-45.53l-2,0a24.19,24.19,0,0,0-1,4.36c-.66,11.24-1.31,22.49-1.79,33.74-.36,8.29-.24,8.37-8.44,9.41-12.44,1.58-24.89,3-37.6,4.59-2.46-17.25-4.86-34-7.25-50.82l-2.09,0c-2.82,17.07-2,34.56-4.16,51.74-1.82.39-3.29.82-4.79,1-29.64,3.54-59.26,7.21-88.92,10.52-24.73,2.75-49.49,5.21-74.27,7.54-22.6,2.12-45.22,4.25-67.87,5.74-24.88,1.63-49.8,3.24-74.72,3.58-28.84.41-57.72-.11-86.56-1.11-20.63-.72-41.24-2.55-61.8-4.52-15.9-1.52-31.71-4-48.5-6.21,5.75-38.8,11.41-77.07,17.21-116.26-5.71,2.17-10.61,3.9-15.41,5.9-25,10.4-49.64,21.79-75.12,30.86-10.35,3.68-13.16,9.16-14.17,18.69-1.43,13.5-4,26.89-6,40.5-43-11.18-84-26.38-124-44.12V.45H1366.8V769.3H.09V734.59c8.53.38,17.05.85,25.58,1.12A820.4,820.4,0,0,0,167.18,728c33.53-4.76,66.86-11.08,100.07-17.77,44.76-9,88.68-21.56,132.05-35.7,42.38-13.83,84.36-29,126.25-44.25,29.68-10.83,59-22.73,88.36-34.4,28.47-11.31,56.82-22.93,85.21-34.44,23-9.35,46-19,69.11-28.08q48.24-18.92,96.76-37.13c23.73-8.95,47.51-17.81,71.47-26.1,18.16-6.28,36.63-11.62,55-17.32,42.12-13.08,84.7-24.34,127.89-33.38,42.26-8.85,84.73-16.21,127.82-19.16,28.44-2,56.95-2.71,85.43-3.86a15.19,15.19,0,0,1,6.27,1.5c8.52,3.66,17.48,4.8,26.62,5.5V387.88c-3.09.26-5.84.26-8.49.75-7.66,1.41-15.23,4-22.92,4.37-28,1.41-56,1.06-83.92,3.39-31.74,2.65-63.44,6.57-94.91,11.54a974,974,0,0,0-125.93,28.57C984,450,939,464.79,894.15,479.69c-25.69,8.53-51.09,18-76.36,27.74C774.91,524,732.21,541,689.48,557.88c-29.29,11.59-58.44,23.51-87.77,35-27,10.55-53.89,21.23-81.15,30.92-42.33,15.05-84.77,29.84-127.48,43.76C351.35,681.14,308.84,692,265.9,701.2a1153.72,1153.72,0,0,1-115.44,18.86,875,875,0,0,1-112,5.11C25.65,725,12.88,724,.09,723.32Z" transform="translate(0.41 0.06)"/><path class="cls-3" d="M.09,175.77c40.06,17.74,81,32.94,124,44.12,2.08-13.61,4.6-27,6-40.5,1-9.53,3.82-15,14.17-18.69,25.48-9.07,50.12-20.46,75.12-30.86,4.8-2,9.7-3.73,15.41-5.9-5.8,39.19-11.46,77.46-17.21,116.26,16.79,2.19,32.6,4.69,48.5,6.21,20.56,2,41.17,3.8,61.8,4.52,28.84,1,57.72,1.52,86.56,1.11,24.92-.34,49.84-1.95,74.72-3.58,22.65-1.49,45.27-3.62,67.87-5.74,24.78-2.33,49.54-4.79,74.27-7.54,29.66-3.31,59.28-7,88.92-10.52,1.5-.18,3-.61,4.79-1,2.21-17.18,1.34-34.67,4.16-51.74l2.09,0c2.39,16.79,4.79,33.57,7.25,50.82,12.71-1.55,25.16-3,37.6-4.59,8.2-1,8.08-1.12,8.44-9.41.48-11.25,1.13-22.5,1.79-33.74a24.19,24.19,0,0,1,1-4.36l2,0c1.85,14.87,3.71,29.75,5.68,45.53l41.28-4c.55-5,1.09-9.93,1.64-14.86l2-.35,4,14.07,105.61-6.75q-2.76-49.41-5.54-99.09l1.84-.83c1.14,1.61,2.83,3,3.32,4.83,5.67,20.51,11,41.09,16.71,61.6,7.24,26.24,14.66,52.43,22.09,78.61a9.41,9.41,0,0,0,4,5.1c-1.18-7.6-2.36-15.2-3.59-23.16H994c-.43-8.9-.84-17.56-1.29-26.93h15c-2.48-30.71-4.9-60.65-7.32-90.58l1.61-.55a26.31,26.31,0,0,1,2.51,4.7c8.45,28.57,16.6,57.23,25.27,85.73,5.42,17.85,11.57,35.47,17.43,53.18,1.11,3.35,1.21,3.31,6.74,2.33-1.81-17.68-3.61-35.41-5.47-53.58h9.13c-1.51-21.05-3-41.66-4.48-62.27l1.45-.71a53.66,53.66,0,0,1,3.53,5.94c4.91,11.42,9.47,23,14.58,34.34,8.79,19.47,17.89,38.79,27.39,59.31-.83-6.17-1.49-11.17-2.22-16.6l4.42.44c-.57-5.6-1.14-11.15-1.77-17.32l15.27,1.27c-.89-14.39-1.76-28.57-2.64-42.75l1.21-.84c1.42,1.29,3.36,2.32,4.18,3.92,12.32,24.14,24.49,48.35,36.73,72.53,1.1,2.18,2.46,4.22,4.31,7.34-1.07-12.26-2-23.09-3-34.82,72.94,12,142.54,32,209,62.51a1008.87,1008.87,0,0,0-99.94-34.84,845,845,0,0,0-103.52-22.94c1.06,13.82,2.08,27,3.1,40.21l-1.46,1c-1.93-1.95-4.47-3.59-5.68-5.91-9.23-17.68-18.2-35.48-27.22-53.26a247.79,247.79,0,0,0-12-22c.7,11.23,1.41,22.46,2.15,34.21l-15.87-1.14c.63,6.92,1.32,13.44,1.79,20,.16,2.28,2.57,5.52-2,6.34,1,6.58,2,13.19,3.29,19.71.09.46,3.17.31,4.87.43,32,2.14,64.14,3.25,96,6.68a718.15,718.15,0,0,1,116.77,22.47c11.79,3.3,23.5,6.92,35.22,10.45a11,11,0,0,1,4.71,2.78c-99.88-31-202.18-41.09-306.92-37.52l3.58,41.9-1.44,1c-1.1-1.32-2.71-2.46-3.21-4-3.62-11-7-22.06-10.5-33.1-.51-1.62-1-3.26-1.65-5.46l-48,3.07c.42,4.86.92,9.21,1.09,13.56,0,1.29-.84,2.62-1.29,3.93-.95-1-2.32-1.85-2.76-3.05a67.88,67.88,0,0,1-2.82-9.81c-.6-2.91-2-4-4.94-3.64-11.37,1.25-22.75,2.36-34.12,3.57-4.56.48-9.12,1.08-14.06,1.68-1.48,20.07-2.94,39.93-4.45,60.55,7.25-1.22,14-2.47,20.78-3.47,38.6-5.69,77.1-12.32,115.85-16.65,30.32-3.39,60.94-4.71,91.46-5.36,16.74-.35,32.72-3.46,48.93-6.67,19-3.78,38.22-6.58,57.42-9.82,3.1,6.59,5.57,12.36,8.54,17.86a7.7,7.7,0,0,0,4.82,3.45c26.35,4.58,52.73,8.94,79.09,13.41a6.83,6.83,0,0,1,4.52,2.71l-84.08-13.45-.89,1.73c3.23,6,6.48,12.05,9.68,18.1,1.28,2.41,3,4.75,3.59,7.33,2,8.27,7.17,10.08,15.24,10.48,17.88.86,35.68,3.17,53.5,4.95a14.14,14.14,0,0,1,3.34,1.25c-.11.52-.21,1-.31,1.57-4.55-.42-9.09-.88-13.64-1.26q-26-2.14-52.07-4.19a4.57,4.57,0,0,0-3.29.84c-5.08,5.32-11.92,5.94-18.44,6.36-14.83,1-29.69.94-44.28-2.69-1.48-.37-3.23-.54-4.33-1.45-7.73-6.42-16.28-1.53-25.2-2.72,1.89,5.52,3.43,10.17,5.09,14.78,2.67,7.44.57,13.36-6.65,16.15a110.89,110.89,0,0,1-58.29,6.1c-.34-.05-.76,0-1-.17-3-2.21-7.55-3.89-8.57-6.81-1.5-4.27,2.66-7.33,6.37-9.29,17.21-9.08,35.46-11.47,54.54-8.1.66.12,1.32.26,2,.35.12,0,.27-.19.81-.61-1-3-1.55-6.53-3.4-9.15-1-1.46-4.3-2.09-6.45-1.9-17.32,1.52-34.73,2.63-51.91,5.21-32.67,4.92-65.37,10-97.76,16.42-29.51,5.9-58.76,13.3-87.89,20.93q-43.21,11.31-85.92,24.48c-42.41,13.17-84.63,27-126.8,40.89-41.87,13.84-83.52,28.34-125.37,42.24q-43.62,14.49-87.53,28.08c-23.07,7.15-46.31,13.79-69.55,20.39-4.07,1.16-5.49,3-6.05,7.22-3.16,23.65-6.7,47.25-10.32,70.83-.28,1.79-2.22,3.33-3.38,5l-2-.75c.51-25.32,1-50.64,1.55-76.54-11.77,3.1-22.93,6.07-34.1,9-4.62,1.19-9.34,2-13.86,3.45a6,6,0,0,0-3.54,3.78c-1.25,6.84-1.94,13.78-3,20.66a80.59,80.59,0,0,1-2,7.89l-1.91-.25V577.93c-12,2.61-23.26,5.46-34.71,7.51-32.69,5.83-65.35,12-98.2,16.8A812.08,812.08,0,0,1,102.67,611c-27.95-.82-55.85-3.54-83.77-5.53-6.29-.45-12.54-1.42-18.81-2.15V592.07c127.32,18.36,252.69,5.67,377.29-23.18q2.5-101.43,5-201.81c-4.17-1.3-5.33.35-5.84,3.74-3,20.22-6.26,40.41-9.45,60.61-2,13-4.14,25.91-6.21,38.87-.61,3.8-1.85,6.44-6.55,7-21.84,2.5-43.64,5.35-65.44,8.18a4.32,4.32,0,0,0-3,1.9c-4.85,10.79-13.95,16.38-24.4,20.43-16.65,6.46-43.89,4-48.58-18-.64-.06-1.31-.18-2-.18-31.42.38-62.84.1-94.13-3.23-22.71-2.42-45.45-4.79-68-8.05C32.41,476,16.3,472.17.09,469v-12.3c8.11,1.9,16.16,4.17,24.35,5.61,23.65,4.16,47.27,8.61,71.07,11.74,18.74,2.47,37.71,3.6,56.61,4.5,19.95.95,39.95.95,59.92,1.22,1.45,0,3.61-.72,4.26-1.81,8.38-14.06,22-18.57,37-20.16,9.7-1,18.93,1.25,27.69,7,3.65-31.4,7.22-62.11,10.83-93.11l-3.33-.16c-31.06-1-62.18-1.11-93.15-3.29-27-1.9-53.86-6-80.74-9.51-3.38-.43-4.72.3-6.36,3-6.92,11.29-22.46,18-35.38,15.12C56,373.12,45.21,363,41.16,346A6.27,6.27,0,0,0,37.71,342c-12.49-4-25.07-7.66-37.62-11.43V318.3l41.47,13.25c4.89-15.67,16.16-22.32,30.66-22.9s25.81,6.93,35.42,18.52c5-32.55,9.89-64.39,14.8-96.39A799.65,799.65,0,0,1,.09,188.07Zm130,57.71c-5.76,37.88-11.53,75.83-17.26,113.55.88.49,1.15.76,1.46.8,24.16,3.2,48.29,6.62,72.48,9.53,33.63,4,67.44,4.3,101.25,4.25,3.25,0,5.31-.16,5.49-4.46.28-6.75,1.52-13.45,2.35-20.13h7.81c-.88,8.2-1.72,16.07-2.66,24.93l73.28-3.31c4.75-23.28,6.88-46,11.77-68.19l2.57.26c-.57,22-1.15,44-1.74,66.56,15.44-1.49,30.35-2.86,45.23-4.45a4.27,4.27,0,0,0,2.76-2.75c1.51-6.23,2.94-12.5,4-18.82,1.94-11.94,3.52-23.94,5.4-35.89.3-1.92,1.32-3.73,2-5.59l2,.38c-.54,20.13-1.07,40.27-1.6,60.6a10.56,10.56,0,0,0,2.23.23c11.33-1.39,22.63-3.17,34-4.11,6-.5,8.1-3.32,8.36-8.78a48,48,0,0,1,1.26-8.59c.35-1.5,1.43-2.83,2.18-4.23l1.34.44c.38,6.13.77,12.27,1.25,20l222.23-40c1.78-25.46,3.49-49.73,5.21-74.24a34.12,34.12,0,0,0-4,0c-25.87,3.28-51.71,6.92-77.62,9.83-40.17,4.5-80.34,9.11-120.61,12.56q-55.08,4.71-110.37,7a1028.92,1028.92,0,0,1-175.25-7.94c-6.68-.87-13.37-1.58-20.39-2.41-2.15,16.2-4.52,31.7-6.19,47.27-2.11,19.64-12.31,31.08-31.65,33.5-21.31,2.66-35.67-13.14-38.89-28.64-4-19.2,14.86-36.48,33.21-35.86,12.44.42,22.68,5.15,31.19,15.61,1.61-11.78,3.06-22.45,4.47-32.85Zm436.48,282.6c1.42-.38,2.38-.59,3.31-.9q42-13.74,83.93-27.51c27.95-9.21,55.81-18.69,83.83-27.69,43.09-13.85,86.11-27.93,129.45-40.91,33.87-10.15,68-19.66,102.38-27.83,38.06-9,76.43-16.92,114.91-24,24.94-4.59,50.29-7,75.49-10.11,11-1.36,22-2.08,33.43-3.12-.8-2.57-1.46-4.85-2.22-7.09-3.27-9.68-6.85-19.26-9.72-29-1.2-4.11-3-5.29-7.1-5.05-26.74,1.57-53.54,2.39-80.24,4.51-23.27,1.85-46.5,4.57-69.61,7.86-26,3.69-51.93,7.68-77.61,12.95-39.34,8.06-78.42,17.39-117.65,26-4,.87-5.17,2.64-5.28,6.48q-.72,24.84-2,49.66c-.08,1.53-2,3-3,4.44-.86-1.43-2.29-2.78-2.5-4.3-1.57-11.13-2.86-22.31-4.32-33.46-.77-5.83-1.73-11.63-2.68-17.94-16.31,4.11-32,8-47.54,12.13-1,.25-1.82,2.57-1.94,4-.41,5.27-.39,10.58-.77,15.86-.11,1.57-1,3.1-1.48,4.64l-1.79-.1-3.42-22c-14.91,4-29.19,7.87-43.48,11.66-40,10.6-79.91,21.27-119.93,31.63-5.16,1.34-7.68,3.41-8.37,8.89-1.26,10-3.3,19.82-5,29.71C572.65,482.18,569.65,498.92,566.59,516.08ZM734.78,230.71c-6.89-1.88-6.34,2.32-6.55,5.6q-2.22,34.47-4.32,68.93c-.23,3.94-1.58,6.13-5.79,6.93-23.72,4.5-47.38,9.29-71.08,13.88q-28.32,5.51-56.67,10.79c-11.49,2.17-23,4.23-35.09,6.45,3.06,49.93,6.09,99.53,9.12,149.12l1.59.27a19.55,19.55,0,0,0,1.13-3.16c3.79-21.12,7.46-42.26,11.42-63.35.36-1.93,2.21-4.63,3.88-5.08,22.34-6,44.77-11.74,67.18-17.54L751.93,377Q743.35,303.77,734.78,230.71ZM373.2,367.57l-73.38,4c-4,34.75-7.91,69.19-12,104.54L356.78,468C362.28,434.35,367.7,401.16,373.2,367.57ZM224.07,137.69c-1.94.72-2.89,1.05-3.81,1.43-26.06,10.88-52.12,21.73-78.11,32.77a6.58,6.58,0,0,0-3.28,4.34c-2.32,13.93-4.31,27.92-6.49,41.87-.47,3,.18,4.49,3.59,5.21,14.29,3.05,28.47,6.67,42.77,9.71,10.25,2.17,20.64,3.75,31.44,5.67C214.82,205,219.37,171.82,224.07,137.69Zm763.6,126.05c-12.25-44.47-24.4-88.61-36.56-132.75l-.75.1c1.2,26,2.4,52.06,3.62,78.61l-52.33,3.13c9.67,35.62,19.16,70.56,28.64,105.51,2-13.19,3.13-26.26,3.87-39.36.59-10.28.37-10.1,10.51-11C958.92,266.75,973.15,265.19,987.67,263.74Zm-547,95.63c-1.46,2.16-3.33,3.73-3.62,5.55-4.56,29.28-9,58.57-13.27,87.9-2.25,15.53-1.68,12.41-14.4,14.94-2.78.56-3.93,1.29-4.43,4.29-3.89,23.6-8,47.16-12.15,70.72-.21,1.24-1.33,2.37-2.17,3.45s-2.52,1.93-2.69,3c-.83,5.51-1.28,11.08-1.87,16.72.7.17,1.22.48,1.63.38,15.2-3.73,30.41-7.43,45.55-11.41,1.21-.31,2.68-2.49,2.75-3.87,1-19.71,2-39.43,2.69-59.16.82-24.91,1.51-49.83,1.92-74.75C440.9,398.43,440.66,379.67,440.66,359.37ZM393.14,511.13c1.31-4.88,2.82-9.52,3.75-14.27,1.51-7.68,2.68-15.43,3.9-23.17,2-12.75,1.94-12.88,14.62-15.61,2.87-.62,3.74-1.64,4.16-4.52,3.11-21.4,6.51-42.75,9.73-64.13,1.38-9.18,2.57-18.39,3.93-28.16L386.6,366.4C385,430.19,383.46,493.61,381.89,557a30.93,30.93,0,0,0,1.73-6.79c1.69-12.49,3.31-25,5-37.5C389.12,508.82,390.78,508.52,393.14,511.13ZM552.35,367.35l-.62.06c-.31,1.13-.71,2.24-.92,3.39-3.81,20.76-7.68,41.52-11.33,62.31-.8,4.55-2.57,7.38-7.47,8.09-3.65.52-7.19,1.78-11,2.78-2.38,15.54-4.67,31.2-7.29,46.81-.43,2.54-2.33,4.84-3.54,7.26l-1.29-.51c-1.36,12.29-2.71,24.58-4.15,37.61l56.93-17.45C558.5,467.15,555.42,417.25,552.35,367.35Zm-59.09-11.5-.44-.17q-6.48,36-13,72c-1.33,7.38-2.85,14.73-3.82,22.16-.47,3.56-2.2,5.53-5.39,5.58-4.93.07-5.57,3.07-6.1,6.93-2.87,21.11-5.9,42.2-8.89,63.29-1.14,8-2.35,16.05-3.58,24.44,14.48-4,28.17-8.09,42-11.56,5.38-1.35,6.57-3.8,6.28-9.16-1.59-29-2.82-58-4-87C495.23,413.55,494.29,384.7,493.26,355.85Zm19.33,117.38c1.29-8.75,2.71-16.8,3.61-24.9S519,433.74,529,434.26c.48,0,1-.37,1.46-.44,3.85-.53,5.48-2.47,6.15-6.59,2.66-16.3,5.9-32.49,8.86-48.74,2.07-11.33,4-22.67,6.09-34.29a14.47,14.47,0,0,0-2.46-.11c-15.46,2.58-30.89,5.42-46.41,7.64-4.46.64-5.53,2.12-5.34,6.39,1.19,26.62,2.12,53.25,3.15,79.88q1.11,28.9,2.3,57.81c.09,2.18.51,4.36.77,6.54,1.88-9.24,3-18.36,4-27.5C508,471,509.61,470.53,512.59,473.23Zm-70.33,79c3.33.25,5.78-.5,6.24-4.9.82-7.95,2-15.86,3.13-23.78,3.27-22.58,6.73-45.14,9.81-67.75.65-4.77,1.88-8.07,7.28-8.28,2.8-.11,3.86-1.6,4.37-4.49,2.81-16,6-32,8.91-47.95,1.49-8.2,2.73-16.45,4-24.69.84-5.27,1.58-10.55,2.45-16.38-13.8,1.89-26.62,3.54-39.39,5.56-1.18.19-2.79,2.7-2.84,4.17-.8,23.89-1.38,47.78-2,71.68-.67,25.59-1.44,51.18-1.94,76.78C442.05,525.4,442.26,538.66,442.26,552.19ZM791.75,223.64l-2.31-.54c-.59,2.06-1.59,4.1-1.7,6.19-1,19.43-1.66,38.87-2.79,58.29-.66,11.42-.92,11.58-12.18,13.53-4.1.72-5.52,2.32-5.67,6.54-.6,15.85-1.53,31.7-2.61,47.52-.15,2.13-1.83,4.16-2.81,6.23l-1.6-.45v14c15.34-3.87,30.27-7.75,45.28-11.3,3.09-.72,3.29-2.05,2.95-4.61-1.33-10-2.52-19.94-3.74-29.92q-3.9-31.71-7.78-63.41C795.08,251.66,793.43,237.65,791.75,223.64Zm-52.89,5.78c5.39,46,10.72,91.44,16,136.9l2,0c0-9.66.09-19.33-.05-29,0-4,1.1-5.41,4.91-3,.78-11.54,1.62-22.76,2.25-34,.16-2.85.95-4.32,4-4.67,4.18-.48,8.3-1.48,12.81-2.33,1.1-23.09,2.19-45.87,3.3-69.37Zm141.79,53.23c-.59,11-1,21.77-1.84,32.47-.14,1.92-1.63,3.73-2.5,5.59l-1-.38v26.79l55.33-11.47c-9.8-35.94-19.42-71.27-29-106.6a2.51,2.51,0,0,0-1.32,2C899,246,897.63,261,896.48,276c-.21,2.86-1,4.3-4.09,4.59C888.68,280.92,885,281.84,880.65,282.65Zm-85-59.87c5.88,46.88,11.63,92.73,17.43,138.93l5.6-1.59c.9-7.54,2.16-14.74,2.52-22,.7-14.32,1-28.65,1.28-43,.2-9,.1-9,9.06-10.83.29-.06.54-.33,1.15-.71,1.2-21.35,2.42-42.9,3.68-65.21Zm45.51-2h-.63c-.16,1.12-.4,2.23-.46,3.35-1.13,19.94-2.3,39.87-3.28,59.81-.18,3.74-1,6.52-5.28,6.54s-4.89,2.17-5,5.85c-.43,17.07-1.17,34.12-1.75,51.18-.12,3.68,0,7.37,0,11.38l46-10.78Zm3.44-3.23c8.5,36.07,16.77,71.21,25,106.36l1.25-.2V302.14h4.67c.47-8.11,1-16.27,1.44-24.82,3.48-.58,6.8-1.64,10.11-1.59,5.38.1,5.82-3.11,6.12-7.19.8-11.23,1.9-22.44,2.77-33.67.54-7.06.87-14.14,1.33-21.78Zm343.61,95.92c4.28,12.43,8.35,24.66,12.82,36.74.57,1.53,3.14,3.15,4.88,3.27a97.84,97.84,0,0,0,13.78-.49,7.88,7.88,0,0,0,3.43-1.53c2.63-1.72,4.94-4.27,7.8-5.25a76.84,76.84,0,0,1,33.74-3.72c6.83.76,13.57,2.29,20.83,3.56-4-8.66-7.92-16.92-11.47-25.35-1.42-3.37-3.43-4.41-6.93-4.61-12.42-.69-24.81-2.11-37.23-2.52C1216.22,313.15,1202.59,313.51,1188.17,313.51ZM1006.36,139.19c1.76,21.87,3.41,43.31,5.29,64.72.31,3.59-.52,5.13-4.27,4.91-3.37-.19-6.76,0-10.63,0,.12,2.29.19,3.95.29,5.61.61,11.07,1.27,22.14,1.8,33.21a11,11,0,0,1-1,4.06c-.53,1.42-1.83,2.75-1.86,4.13,0,2.31.66,4.63,1.09,7.2l46.72-2.74Zm97.21,120.41-45.33-100.88c1.11,15.44,2.19,29.55,3.1,43.67.47,7.36.33,7.37-7.1,7.62-.27,0-.53.34-1.18.78,1.65,16.14,3.33,32.49,5,48.81Zm166.59,53.18c-2-4.29-4-8-5.5-11.93-1.11-2.94-2.86-3.22-5.54-2.77-6.21,1.05-12.49,1.68-18.68,2.81-12.14,2.22-24.23,4.65-36.34,7,.06.26.11.52.17.78Zm-829,279.74.68.08,4.44-31.93-1.66-.81c-1.15,1.52-3.25,3-3.3,4.55C441,573.77,441.19,583.15,441.19,592.52Zm372.7-224.61C815,376,816,383.49,817.05,391l1.39-.14v-24Zm-434.78-11,3.12.73a123.59,123.59,0,0,0,.51-24.28Zm676.25-74.61.63-.22c-.38-4.55-.83-9.11-1.1-13.67-.19-3.25-1.63-4.2-5-2.8Q1052.62,274,1055.36,282.29ZM731.21,204.64l-.8.24q-.54,9.18-1.06,18.36l1.55.61c.72-1.08,2.12-2.21,2.05-3.23C732.58,215.28,731.83,210,731.21,204.64Zm-291.3,147,2.38.25q.4-7.39.8-14.77l-.89-.09Q441.06,344.3,439.91,351.6Z" transform="translate(0.41 0.06)"/><path class="cls-2" d="M.09,469c16.21,3.15,32.32,6.93,48.63,9.28,22.6,3.26,45.34,5.63,68.05,8.05,31.29,3.33,62.71,3.61,94.13,3.23.68,0,1.35.12,2,.18,4.69,22.05,31.93,24.49,48.58,18,10.45-4.05,19.55-9.64,24.4-20.43a4.32,4.32,0,0,1,3-1.9c21.8-2.83,43.6-5.68,65.44-8.18,4.7-.54,5.94-3.18,6.55-7,2.07-13,4.17-25.91,6.21-38.87,3.19-20.2,6.4-40.39,9.45-60.61.51-3.39,1.67-5,5.84-3.74q-2.49,100.51-5,201.81c-124.6,28.85-250,41.54-377.29,23.18Z" transform="translate(0.41 0.06)"/><path class="cls-2" d="M.09,330.6c12.55,3.77,25.13,7.46,37.62,11.43A6.27,6.27,0,0,1,41.16,346C45.21,363,56,373.12,72.83,376.88c12.92,2.89,28.46-3.83,35.38-15.12,1.64-2.68,3-3.41,6.36-3,26.88,3.49,53.74,7.61,80.74,9.51,31,2.18,62.09,2.28,93.15,3.29l3.33.16c-3.61,31-7.18,61.71-10.83,93.11-8.76-5.78-18-8.07-27.69-7-15,1.59-28.59,6.1-37,20.16-.65,1.09-2.81,1.83-4.26,1.81-20-.27-40-.27-59.92-1.22-18.9-.9-37.87-2-56.61-4.5-23.8-3.13-47.42-7.58-71.07-11.74-8.19-1.44-16.24-3.71-24.35-5.61Z" transform="translate(0.41 0.06)"/><path class="cls-2" d="M.09,188.07a799.65,799.65,0,0,0,122.35,42.71c-4.91,32-9.8,63.84-14.8,96.39-9.61-11.59-20.9-19.11-35.42-18.52s-25.77,7.23-30.66,22.9L.09,318.3Z" transform="translate(0.41 0.06)"/><path class="cls-3" d="M.09,723.32c12.79.64,25.56,1.63,38.35,1.85a875,875,0,0,0,112-5.11A1153.72,1153.72,0,0,0,265.9,701.2c42.94-9.25,85.45-20.06,127.18-33.65,42.71-13.92,85.15-28.71,127.48-43.76,27.26-9.69,54.19-20.37,81.15-30.92,29.33-11.48,58.48-23.4,87.77-35C732.21,541,774.91,524,817.79,507.43c25.27-9.73,50.67-19.21,76.36-27.74C939,464.79,984,450,1029.31,436.5a974,974,0,0,1,125.93-28.57c31.47-5,63.17-8.89,94.91-11.54,27.87-2.33,56-2,83.92-3.39,7.69-.39,15.26-3,22.92-4.37,2.65-.49,5.4-.49,8.49-.75v15.55c-9.14-.7-18.1-1.84-26.62-5.5a15.19,15.19,0,0,0-6.27-1.5c-28.48,1.15-57,1.91-85.43,3.86-43.09,2.95-85.56,10.31-127.82,19.16-43.19,9-85.77,20.3-127.89,33.38-18.36,5.7-36.83,11-55,17.32-24,8.29-47.74,17.15-71.47,26.1q-48.48,18.28-96.76,37.13c-23.15,9.07-46.07,18.73-69.11,28.08-28.39,11.51-56.74,23.13-85.21,34.44-29.37,11.67-58.68,23.57-88.36,34.4-41.89,15.29-83.87,30.42-126.25,44.25-43.37,14.14-87.29,26.69-132,35.7-33.21,6.69-66.54,13-100.07,17.77a820.4,820.4,0,0,1-141.51,7.69c-8.53-.27-17.05-.74-25.58-1.12Z" transform="translate(0.41 0.06)"/><path class="cls-2" d="M130.11,233.48l78.56,16c-1.41,10.4-2.86,21.07-4.47,32.85-8.51-10.46-18.75-15.19-31.19-15.61-18.35-.62-37.2,16.66-33.21,35.86,3.22,15.5,17.58,31.3,38.89,28.64,19.34-2.42,29.54-13.86,31.65-33.5,1.67-15.57,4-31.07,6.19-47.27,7,.83,13.71,1.54,20.39,2.41a1028.92,1028.92,0,0,0,175.25,7.94q55.23-2.22,110.37-7c40.27-3.45,80.44-8.06,120.61-12.56,25.91-2.91,51.75-6.55,77.62-9.83a34.12,34.12,0,0,1,4,0c-1.72,24.51-3.43,48.78-5.21,74.24l-222.23,40c-.48-7.68-.87-13.82-1.25-20l-1.34-.44c-.75,1.4-1.83,2.73-2.18,4.23a48,48,0,0,0-1.26,8.59c-.26,5.46-2.36,8.28-8.36,8.78-11.37.94-22.67,2.72-34,4.11a10.56,10.56,0,0,1-2.23-.23c.53-20.33,1.06-40.47,1.6-60.6l-2-.38c-.68,1.86-1.7,3.67-2,5.59-1.88,11.95-3.46,23.95-5.4,35.89-1,6.32-2.45,12.59-4,18.82a4.27,4.27,0,0,1-2.76,2.75c-14.88,1.59-29.79,3-45.23,4.45.59-22.57,1.17-44.56,1.74-66.56l-2.57-.26c-4.89,22.19-7,44.91-11.77,68.19L301,362c.94-8.86,1.78-16.73,2.66-24.93h-7.81c-.83,6.68-2.07,13.38-2.35,20.13-.18,4.3-2.24,4.46-5.49,4.46-33.81.05-67.62-.21-101.25-4.25-24.19-2.91-48.32-6.33-72.48-9.53-.31,0-.58-.31-1.46-.8C118.58,309.31,124.35,271.36,130.11,233.48Z" transform="translate(0.41 0.06)"/><path class="cls-2" d="M566.59,516.08c3.06-17.16,6.06-33.9,9-50.65,1.75-9.89,3.79-19.75,5-29.71.69-5.48,3.21-7.55,8.37-8.89,40-10.36,80-21,119.93-31.63,14.29-3.79,28.57-7.66,43.48-11.66l3.42,22,1.79.1c.52-1.54,1.37-3.07,1.48-4.64.38-5.28.36-10.59.77-15.86.12-1.43,1-3.75,1.94-4,15.58-4.15,31.23-8,47.54-12.13,1,6.31,1.91,12.11,2.68,17.94,1.46,11.15,2.75,22.33,4.32,33.46.21,1.52,1.64,2.87,2.5,4.3,1.05-1.48,2.93-2.91,3-4.44q1.27-24.82,2-49.66c.11-3.84,1.3-5.61,5.28-6.48,39.23-8.6,78.31-17.93,117.65-26,25.68-5.27,51.65-9.26,77.61-12.95,23.11-3.29,46.34-6,69.61-7.86,26.7-2.12,53.5-2.94,80.24-4.51,4.09-.24,5.9.94,7.1,5.05,2.87,9.78,6.45,19.36,9.72,29,.76,2.24,1.42,4.52,2.22,7.09-11.38,1-22.44,1.76-33.43,3.12-25.2,3.12-50.55,5.52-75.49,10.11-38.48,7.08-76.85,15-114.91,24-34.39,8.17-68.51,17.68-102.38,27.83-43.34,13-86.36,27.06-129.45,40.91-28,9-55.88,18.48-83.83,27.69s-56,18.35-83.93,27.51C569,515.49,568,515.7,566.59,516.08Z" transform="translate(0.41 0.06)"/><path class="cls-2" d="M734.78,230.71q8.57,73.11,17.15,146.31L649.6,403.55c-22.41,5.8-44.84,11.49-67.18,17.54-1.67.45-3.52,3.15-3.88,5.08-4,21.09-7.63,42.23-11.42,63.35a19.55,19.55,0,0,1-1.13,3.16l-1.59-.27c-3-49.59-6.06-99.19-9.12-149.12,12.09-2.22,23.6-4.28,35.09-6.45q28.33-5.32,56.67-10.79c23.7-4.59,47.36-9.38,71.08-13.88,4.21-.8,5.56-3,5.79-6.93q2-34.47,4.32-68.93C728.44,233,727.89,228.83,734.78,230.71Z" transform="translate(0.41 0.06)"/><path class="cls-2" d="M373.2,367.57c-5.5,33.59-10.92,66.78-16.42,100.41l-68.92,8.17c4.05-35.35,8-69.79,12-104.54Z" transform="translate(0.41 0.06)"/><path class="cls-2" d="M224.07,137.69c-4.7,34.13-9.25,67.28-13.89,101-10.8-1.92-21.19-3.5-31.44-5.67-14.3-3-28.48-6.66-42.77-9.71-3.41-.72-4.06-2.18-3.59-5.21,2.18-13.95,4.17-27.94,6.49-41.87a6.58,6.58,0,0,1,3.28-4.34c26-11,52-21.89,78.11-32.77C221.18,138.74,222.13,138.41,224.07,137.69Z" transform="translate(0.41 0.06)"/><path class="cls-2" d="M987.67,263.74c-14.52,1.45-28.75,3-43,4.26-10.14.88-9.92.7-10.51,11-.74,13.1-1.91,26.17-3.87,39.36-9.48-34.95-19-69.89-28.64-105.51L954,209.7c-1.22-26.55-2.42-52.58-3.62-78.61l.75-.1C963.27,175.13,975.42,219.27,987.67,263.74Z" transform="translate(0.41 0.06)"/><path class="cls-2" d="M440.66,359.37c0,20.3.24,39.06-.06,57.81-.41,24.92-1.1,49.84-1.92,74.75C438,511.66,437,531.38,436,551.09c-.07,1.38-1.54,3.56-2.75,3.87-15.14,4-30.35,7.68-45.55,11.41-.41.1-.93-.21-1.63-.38.59-5.64,1-11.21,1.87-16.72.17-1.12,1.85-2,2.69-3s2-2.21,2.17-3.45c4.15-23.56,8.26-47.12,12.15-70.72.5-3,1.65-3.73,4.43-4.29,12.72-2.53,12.15.59,14.4-14.94,4.23-29.33,8.71-58.62,13.27-87.9C437.33,363.1,439.2,361.53,440.66,359.37Z" transform="translate(0.41 0.06)"/><path class="cls-2" d="M393.14,511.13c-2.36-2.61-4-2.31-4.54,1.61-1.67,12.5-3.29,25-5,37.5a30.93,30.93,0,0,1-1.73,6.79c1.57-63.42,3.14-126.84,4.71-190.63l46.63-5.13c-1.36,9.77-2.55,19-3.93,28.16-3.22,21.38-6.62,42.73-9.73,64.13-.42,2.88-1.29,3.9-4.16,4.52-12.68,2.73-12.62,2.86-14.62,15.61-1.22,7.74-2.39,15.49-3.9,23.17C396,501.61,394.45,506.25,393.14,511.13Z" transform="translate(0.41 0.06)"/><path class="cls-2" d="M552.35,367.35c3.07,49.9,6.15,99.8,9.27,150.35l-56.93,17.45c1.44-13,2.79-25.32,4.15-37.61l1.29.51c1.21-2.42,3.11-4.72,3.54-7.26,2.62-15.61,4.91-31.27,7.29-46.81,3.86-1,7.4-2.26,11-2.78,4.9-.71,6.67-3.54,7.47-8.09,3.65-20.79,7.52-41.55,11.33-62.31.21-1.15.61-2.26.92-3.39Z" transform="translate(0.41 0.06)"/><path class="cls-2" d="M493.26,355.85c1,28.85,2,57.7,3.13,86.54,1.16,29,2.39,58,4,87,.29,5.36-.9,7.81-6.28,9.16-13.84,3.47-27.53,7.53-42,11.56,1.23-8.39,2.44-16.41,3.58-24.44,3-21.09,6-42.18,8.89-63.29.53-3.86,1.17-6.86,6.1-6.93,3.19-.05,4.92-2,5.39-5.58,1-7.43,2.49-14.78,3.82-22.16q6.47-36,13-72Z" transform="translate(0.41 0.06)"/><path class="cls-2" d="M512.59,473.23c-3-2.7-4.57-2.19-5,1.62-1,9.14-2.15,18.26-4,27.5-.26-2.18-.68-4.36-.77-6.54q-1.2-28.9-2.3-57.81c-1-26.63-2-53.26-3.15-79.88-.19-4.27.88-5.75,5.34-6.39,15.52-2.22,30.95-5.06,46.41-7.64a14.47,14.47,0,0,1,2.46.11c-2.06,11.62-4,23-6.09,34.29-3,16.25-6.2,32.44-8.86,48.74-.67,4.12-2.3,6.06-6.15,6.59-.5.07-1,.46-1.46.44-10-.52-11.9,6.11-12.79,14.07S513.88,464.48,512.59,473.23Z" transform="translate(0.41 0.06)"/><path class="cls-2" d="M442.26,552.19c0-13.53-.21-26.79.05-40,.5-25.6,1.27-51.19,1.94-76.78.62-23.9,1.2-47.79,2-71.68.05-1.47,1.66-4,2.84-4.17,12.77-2,25.59-3.67,39.39-5.56-.87,5.83-1.61,11.11-2.45,16.38-1.3,8.24-2.54,16.49-4,24.69-2.92,16-6.1,31.94-8.91,47.95-.51,2.89-1.57,4.38-4.37,4.49-5.4.21-6.63,3.51-7.28,8.28-3.08,22.61-6.54,45.17-9.81,67.75-1.15,7.92-2.31,15.83-3.13,23.78C448,551.69,445.59,552.44,442.26,552.19Z" transform="translate(0.41 0.06)"/><path class="cls-2" d="M791.75,223.64c1.68,14,3.33,28,5,42q3.86,31.71,7.78,63.41c1.22,10,2.41,20,3.74,29.92.34,2.56.14,3.89-2.95,4.61-15,3.55-29.94,7.43-45.28,11.3V361l1.6.45c1-2.07,2.66-4.1,2.81-6.23,1.08-15.82,2-31.67,2.61-47.52.15-4.22,1.57-5.82,5.67-6.54C784,299.16,784.29,299,785,287.58c1.13-19.42,1.8-38.86,2.79-58.29.11-2.09,1.11-4.13,1.7-6.19Z" transform="translate(0.41 0.06)"/><path class="cls-2" d="M738.86,229.42l45.25-5.51c-1.11,23.5-2.2,46.28-3.3,69.37-4.51.85-8.63,1.85-12.81,2.33-3.09.35-3.88,1.82-4,4.67-.63,11.25-1.47,22.47-2.25,34-3.81-2.42-5-1-4.91,3,.14,9.67.05,19.34.05,29l-2,0C749.58,320.86,744.25,275.41,738.86,229.42Z" transform="translate(0.41 0.06)"/><path class="cls-2" d="M880.65,282.65c4.37-.81,8-1.73,11.74-2.09,3.08-.29,3.88-1.73,4.09-4.59,1.15-15,2.5-29.94,3.78-44.9a2.51,2.51,0,0,1,1.32-2c9.63,35.33,19.25,70.66,29,106.6L875.3,347.12V320.33l1,.38c.87-1.86,2.36-3.67,2.5-5.59C879.6,304.42,880.06,293.69,880.65,282.65Z" transform="translate(0.41 0.06)"/><path class="cls-2" d="M795.61,222.78l40.72-4.39c-1.26,22.31-2.48,43.86-3.68,65.21-.61.38-.86.65-1.15.71-9,1.8-8.86,1.8-9.06,10.83-.31,14.34-.58,28.67-1.28,43-.36,7.25-1.62,14.45-2.52,22l-5.6,1.59C807.24,315.51,801.49,269.66,795.61,222.78Z" transform="translate(0.41 0.06)"/><path class="cls-2" d="M841.12,220.82l29.56,127.33-46,10.78c0-4-.1-7.7,0-11.38.58-17.06,1.32-34.11,1.75-51.18.1-3.68.84-5.83,5-5.85s5.1-2.8,5.28-6.54c1-19.94,2.15-39.87,3.28-59.81.06-1.12.3-2.23.46-3.35Z" transform="translate(0.41 0.06)"/><path class="cls-2" d="M844.56,217.59l52.73-4.5c-.46,7.64-.79,14.72-1.33,21.78-.87,11.23-2,22.44-2.77,33.67-.3,4.08-.74,7.29-6.12,7.19-3.31-.05-6.63,1-10.11,1.59-.49,8.55-1,16.71-1.44,24.82h-4.67v21.61l-1.25.2C861.33,288.8,853.06,253.66,844.56,217.59Z" transform="translate(0.41 0.06)"/><path class="cls-2" d="M1188.17,313.51c14.42,0,28-.36,41.65.1,12.42.41,24.81,1.83,37.23,2.52,3.5.2,5.51,1.24,6.93,4.61,3.55,8.43,7.52,16.69,11.47,25.35-7.26-1.27-14-2.8-20.83-3.56a76.84,76.84,0,0,0-33.74,3.72c-2.86,1-5.17,3.53-7.8,5.25a7.88,7.88,0,0,1-3.43,1.53,97.84,97.84,0,0,1-13.78.49c-1.74-.12-4.31-1.74-4.88-3.27C1196.52,338.17,1192.45,325.94,1188.17,313.51Z" transform="translate(0.41 0.06)"/><path class="cls-2" d="M1006.36,139.19l37.45,121.06L997.09,263c-.43-2.57-1.14-4.89-1.09-7.2,0-1.38,1.33-2.71,1.86-4.13a11,11,0,0,0,1-4.06c-.53-11.07-1.19-22.14-1.8-33.21-.1-1.66-.17-3.32-.29-5.61,3.87,0,7.26-.15,10.63,0,3.75.22,4.58-1.32,4.27-4.91C1009.77,182.5,1008.12,161.06,1006.36,139.19Z" transform="translate(0.41 0.06)"/><path class="cls-2" d="M1103.57,259.6h-45.5c-1.68-16.32-3.36-32.67-5-48.81.65-.44.91-.78,1.18-.78,7.43-.25,7.57-.26,7.1-7.62-.91-14.12-2-28.23-3.1-43.67Z" transform="translate(0.41 0.06)"/><path class="cls-2" d="M1270.16,312.78l-65.89-4.12c-.06-.26-.11-.52-.17-.78,12.11-2.34,24.2-4.77,36.34-7,6.19-1.13,12.47-1.76,18.68-2.81,2.68-.45,4.43-.17,5.54,2.77C1266.14,304.78,1268.15,308.49,1270.16,312.78Z" transform="translate(0.41 0.06)"/><path class="cls-2" d="M441.19,592.52c0-9.37-.16-18.75.16-28.11,0-1.55,2.15-3,3.3-4.55l1.66.81-4.44,31.93Z" transform="translate(0.41 0.06)"/><path class="cls-2" d="M813.89,367.91l4.55-1v24l-1.39.14C816,383.49,815,376,813.89,367.91Z" transform="translate(0.41 0.06)"/><path class="cls-2" d="M379.11,356.9l3.63-23.55a123.59,123.59,0,0,1-.51,24.28Z" transform="translate(0.41 0.06)"/><path class="cls-2" d="M1055.36,282.29q-2.74-8.34-5.5-16.69c3.4-1.4,4.84-.45,5,2.8.27,4.56.72,9.12,1.1,13.67Z" transform="translate(0.41 0.06)"/><path class="cls-2" d="M731.21,204.64c.62,5.33,1.37,10.64,1.74,16,.07,1-1.33,2.15-2.05,3.23l-1.55-.61q.52-9.18,1.06-18.36Z" transform="translate(0.41 0.06)"/><path class="cls-2" d="M439.91,351.6q1.14-7.31,2.29-14.61l.89.09q-.4,7.38-.8,14.77Z" transform="translate(0.41 0.06)"/></g></svg>