<svg id="website-basic-design" xmlns="http://www.w3.org/2000/svg" viewBox="0 0 1366 768"><defs><style>.cls-1{opacity:0.6;}.cls-2{stroke:#231f20;stroke-miterlimit:10;}</style></defs><title>strings-01</title><g id="strings-fancy" class="cls-1"><path class="cls-2" d="M.07,170.21c40.06,17.74,81,32.94,124,44.12,2.08-13.6,4.6-27,6-40.5,1-9.53,3.82-15,14.18-18.69,25.47-9.07,50.11-20.46,75.11-30.86,4.8-2,9.7-3.72,15.41-5.9-5.8,39.19-11.46,77.46-17.21,116.27,16.79,2.18,32.6,4.68,48.5,6.2,20.56,2,41.17,3.81,61.8,4.52,28.84,1,57.72,1.52,86.56,1.12,24.92-.35,49.84-2,74.72-3.59,22.65-1.49,45.27-3.62,67.87-5.74,24.78-2.33,49.54-4.78,74.27-7.54,29.66-3.3,59.28-7,88.92-10.52,1.5-.18,3-.61,4.79-1,2.21-17.18,1.34-34.67,4.16-51.74l2.09,0c2.39,16.79,4.79,33.57,7.25,50.82,12.71-1.54,25.16-3,37.6-4.58,8.2-1,8.08-1.12,8.44-9.42.49-11.25,1.13-22.49,1.79-33.73a24.1,24.1,0,0,1,1-4.37l2,.05c1.85,14.88,3.71,29.75,5.68,45.53l41.28-4c.55-5,1.09-9.93,1.64-14.86l2-.34,4,14.06,105.61-6.75q-2.76-49.41-5.54-99.09l1.84-.82c1.14,1.6,2.83,3.05,3.32,4.83,5.67,20.5,11,41.09,16.71,61.59,7.24,26.24,14.66,52.43,22.09,78.62a9.39,9.39,0,0,0,4,5.09c-1.18-7.6-2.36-15.2-3.59-23.16H994c-.43-8.9-.84-17.55-1.29-26.93h15c-2.48-30.7-4.9-60.64-7.32-90.58l1.61-.55a26.31,26.31,0,0,1,2.51,4.7c8.45,28.57,16.6,57.23,25.27,85.73,5.42,17.85,11.57,35.48,17.43,53.19,1.11,3.34,1.21,3.3,6.74,2.33-1.8-17.69-3.61-35.42-5.47-53.58h9.13c-1.51-21.06-3-41.67-4.48-62.28l1.45-.7a51.88,51.88,0,0,1,3.53,5.94c4.91,11.42,9.47,23,14.58,34.33,8.79,19.47,17.89,38.8,27.39,59.31-.83-6.17-1.49-11.16-2.22-16.6l4.42.45c-.57-5.61-1.14-11.16-1.77-17.32l15.27,1.26c-.89-14.39-1.76-28.57-2.64-42.75l1.21-.84c1.42,1.3,3.36,2.32,4.18,3.92,12.32,24.14,24.49,48.36,36.73,72.53,1.1,2.18,2.46,4.22,4.31,7.34-1.07-12.26-2-23.09-3-34.82,72.94,12,142.54,32,209,62.51a1011.44,1011.44,0,0,0-99.94-34.84,846.88,846.88,0,0,0-103.52-22.94c1.06,13.82,2.08,27,3.1,40.21l-1.46,1c-1.93-2-4.47-3.59-5.68-5.92-9.23-17.67-18.2-35.48-27.22-53.25a246.56,246.56,0,0,0-12-22c.7,11.23,1.41,22.46,2.15,34.21l-15.87-1.14c.63,6.92,1.32,13.44,1.79,20,.16,2.28,2.57,5.52-2,6.34,1,6.59,2,13.19,3.29,19.72.09.45,3.17.31,4.87.42,32,2.14,64.14,3.26,96,6.69a717.06,717.06,0,0,1,116.77,22.46c11.79,3.3,23.5,6.92,35.22,10.45a11,11,0,0,1,4.71,2.79c-99.88-31-202.18-41.1-306.92-37.53,1.22,14.29,2.4,28.09,3.58,41.9l-1.44,1c-1.1-1.31-2.71-2.45-3.21-4-3.62-11-7-22.06-10.5-33.11-.51-1.62-1-3.25-1.65-5.46l-48,3.07c.42,4.87.92,9.21,1.09,13.56,0,1.29-.84,2.62-1.29,3.94-.95-1-2.32-1.86-2.76-3.05a68.37,68.37,0,0,1-2.82-9.82c-.6-2.91-2-4-4.94-3.64-11.37,1.25-22.75,2.36-34.12,3.57-4.56.49-9.12,1.08-14.06,1.68-1.48,20.08-2.94,39.93-4.45,60.55,7.25-1.22,14-2.47,20.78-3.47,38.6-5.69,77.1-12.32,115.85-16.65,30.32-3.39,60.94-4.71,91.46-5.35,16.74-.36,32.72-3.46,48.93-6.68,19-3.78,38.22-6.58,57.42-9.82,3.1,6.59,5.57,12.36,8.54,17.86a7.7,7.7,0,0,0,4.82,3.45c26.35,4.58,52.73,8.94,79.09,13.41a6.87,6.87,0,0,1,4.53,2.71l-84.09-13.45-.89,1.74c3.23,6,6.48,12.05,9.68,18.09,1.28,2.41,3,4.75,3.59,7.33,2,8.27,7.17,10.09,15.24,10.48,17.88.87,35.68,3.17,53.5,4.95a14.14,14.14,0,0,1,3.34,1.25c-.11.52-.21,1.05-.31,1.57-4.55-.42-9.09-.88-13.64-1.26q-26-2.13-52.07-4.19a4.62,4.62,0,0,0-3.29.84c-5.08,5.32-11.92,5.94-18.44,6.37-14.83,1-29.69.93-44.28-2.7-1.48-.36-3.23-.54-4.33-1.45-7.73-6.42-16.28-1.53-25.2-2.72,1.89,5.52,3.43,10.17,5.09,14.78,2.67,7.44.57,13.36-6.65,16.16a111,111,0,0,1-58.29,6.09c-.34-.05-.76,0-1-.17-3-2.2-7.55-3.89-8.57-6.81-1.5-4.27,2.66-7.33,6.37-9.29,17.21-9.08,35.46-11.47,54.54-8.1.66.12,1.32.27,2,.35.12,0,.27-.19.81-.61-1-3-1.55-6.53-3.4-9.14-1-1.47-4.3-2.1-6.45-1.91-17.32,1.53-34.73,2.63-51.91,5.22-32.67,4.92-65.37,9.94-97.76,16.41-29.51,5.91-58.76,13.31-87.89,20.93Q908,406.81,865.33,420c-42.41,13.17-84.63,27-126.8,40.9-41.87,13.83-83.52,28.34-125.37,42.24q-43.62,14.48-87.53,28.07c-23.07,7.16-46.31,13.79-69.55,20.4-4.07,1.16-5.49,3-6.05,7.22-3.16,23.65-6.7,47.24-10.32,70.83-.28,1.79-2.22,3.32-3.38,5l-2-.74c.51-25.33,1-50.65,1.55-76.55-11.77,3.1-22.93,6.07-34.1,9-4.62,1.19-9.34,2-13.86,3.45a6,6,0,0,0-3.54,3.78c-1.25,6.84-1.94,13.79-3,20.67-.41,2.66-1.31,5.26-2,7.89l-1.91-.25V572.37c-12,2.61-23.26,5.47-34.71,7.51-32.69,5.83-65.35,12-98.2,16.81-47,6.9-94.4,10.18-141.92,8.78-27.95-.81-55.85-3.54-83.77-5.53-6.29-.45-12.54-1.42-18.81-2.15V586.51c127.32,18.37,252.69,5.67,377.29-23.18q2.5-101.42,5-201.81c-4.17-1.3-5.33.35-5.84,3.75-3.05,20.21-6.26,40.4-9.45,60.6-2,13-4.14,25.91-6.21,38.87-.61,3.81-1.85,6.44-6.55,7-21.84,2.5-43.64,5.36-65.44,8.18a4.32,4.32,0,0,0-3,1.9c-4.85,10.79-14,16.38-24.4,20.44-16.65,6.45-43.89,4-48.58-18a18.19,18.19,0,0,0-2-.17c-31.42.37-62.84.09-94.13-3.24C94,478.37,71.3,476,48.7,472.74c-16.31-2.35-32.42-6.13-48.63-9.27V451.16c8.11,1.9,16.16,4.18,24.35,5.62,23.65,4.16,47.27,8.6,71.07,11.73,18.74,2.47,37.71,3.61,56.61,4.5,20,.95,40,.95,59.92,1.22,1.45,0,3.61-.72,4.26-1.81,8.38-14.06,22-18.57,37-20.16a41.09,41.09,0,0,1,27.69,7c3.65-31.4,7.22-62.11,10.83-93.11l-3.33-.16c-31.06-1-62.18-1.11-93.15-3.29-27-1.9-53.86-6-80.74-9.5-3.38-.44-4.72.3-6.36,3-6.92,11.29-22.46,18-35.38,15.13C56,367.56,45.19,357.45,41.14,340.39a6.23,6.23,0,0,0-3.45-3.91C25.2,332.5,12.62,328.81.07,325v-12.3L41.54,326c4.89-15.67,16.16-22.32,30.66-22.9S98,310,107.62,321.61c5-32.54,9.89-64.39,14.8-96.39A799.62,799.62,0,0,1,.07,182.52Zm130,57.71c-5.76,37.89-11.53,75.83-17.26,113.55.88.49,1.15.76,1.46.8,24.16,3.21,48.29,6.62,72.48,9.53,33.63,4,67.44,4.3,101.25,4.26,3.25,0,5.31-.16,5.49-4.47.28-6.74,1.52-13.45,2.35-20.13h7.81c-.88,8.21-1.72,16.08-2.66,24.93l73.28-3.31c4.75-23.28,6.88-46,11.77-68.18l2.57.26c-.57,22-1.15,44-1.74,66.55,15.44-1.48,30.35-2.86,45.23-4.45a4.27,4.27,0,0,0,2.76-2.75c1.51-6.23,2.94-12.5,4-18.82,1.94-11.94,3.52-23.93,5.4-35.88.3-1.93,1.32-3.74,2-5.6l2,.38c-.54,20.14-1.07,40.27-1.6,60.6a11.39,11.39,0,0,0,2.23.24c11.33-1.4,22.63-3.17,34-4.12,6-.49,8.1-3.32,8.36-8.78a48,48,0,0,1,1.26-8.59c.35-1.5,1.43-2.83,2.18-4.23l1.34.44c.38,6.13.77,12.27,1.25,20l222.23-40c1.78-25.46,3.49-49.72,5.21-74.24a34.12,34.12,0,0,0-4,0c-25.87,3.28-51.71,6.92-77.62,9.83-40.17,4.51-80.34,9.11-120.61,12.56q-55.08,4.72-110.37,7a1030,1030,0,0,1-175.25-7.93c-6.68-.88-13.37-1.59-20.39-2.41-2.15,16.19-4.52,31.69-6.19,47.26-2.11,19.64-12.31,31.08-31.65,33.5C157.36,328.29,143,312.5,139.78,297c-4-19.2,14.86-36.48,33.21-35.86,12.44.43,22.68,5.15,31.19,15.61,1.61-11.77,3.06-22.45,4.47-32.84Zm436.48,282.6c1.42-.38,2.38-.59,3.31-.89q42-13.75,83.93-27.52c28-9.21,55.81-18.68,83.83-27.69,43.09-13.85,86.11-27.93,129.45-40.91,33.87-10.14,68-19.65,102.38-27.82,38.06-9.05,76.43-16.92,114.91-24,24.94-4.59,50.29-7,75.49-10.11,11-1.36,22.05-2.08,33.43-3.12-.8-2.57-1.46-4.85-2.22-7.09-3.27-9.67-6.85-19.25-9.72-29-1.2-4.11-3-5.28-7.1-5-26.74,1.56-53.54,2.38-80.24,4.5-23.27,1.85-46.5,4.57-69.61,7.86-26,3.7-51.93,7.69-77.61,12.95-39.34,8.06-78.42,17.39-117.65,26-4,.87-5.17,2.64-5.28,6.48q-.72,24.84-2,49.66c-.08,1.53-2,3-3,4.44-.86-1.43-2.29-2.78-2.5-4.29-1.57-11.14-2.86-22.32-4.32-33.47-.77-5.83-1.73-11.63-2.68-17.94-16.31,4.11-32,8-47.54,12.13-1,.25-1.82,2.58-1.94,4-.41,5.27-.39,10.58-.77,15.86-.11,1.57-1,3.1-1.48,4.65l-1.79-.11-3.42-22c-14.91,4-29.19,7.86-43.48,11.65C669,400.24,629,410.91,589,421.27c-5.16,1.34-7.68,3.42-8.37,8.89-1.26,10-3.3,19.82-5,29.72C572.63,476.62,569.63,493.36,566.57,510.52ZM734.76,225.15c-6.89-1.87-6.34,2.32-6.55,5.6q-2.22,34.47-4.32,68.94c-.23,3.93-1.58,6.13-5.79,6.93-23.72,4.5-47.38,9.28-71.08,13.88Q618.7,326,590.35,331.29c-11.49,2.16-23,4.22-35.09,6.44,3.06,49.93,6.09,99.53,9.12,149.13l1.59.27A20,20,0,0,0,567.1,484c3.79-21.12,7.46-42.26,11.42-63.35.36-1.92,2.21-4.63,3.88-5.08,22.34-6,44.77-11.74,67.18-17.54l102.33-26.52Q743.33,298.22,734.76,225.15ZM373.18,362l-73.38,4.05c-4,34.75-7.91,69.18-12,104.54l68.92-8.18C362.26,428.79,367.68,395.6,373.18,362ZM224.05,132.13c-1.94.73-2.89,1.05-3.81,1.43-26.06,10.88-52.12,21.73-78.11,32.77a6.63,6.63,0,0,0-3.28,4.35c-2.32,13.93-4.31,27.91-6.49,41.86-.47,3,.18,4.49,3.59,5.22,14.29,3.05,28.47,6.67,42.77,9.7,10.25,2.17,20.64,3.75,31.44,5.68C214.8,199.41,219.35,166.26,224.05,132.13Zm763.6,126.06c-12.25-44.47-24.4-88.61-36.56-132.75l-.75.1c1.2,26,2.4,52.05,3.62,78.6l-52.33,3.13c9.67,35.62,19.16,70.57,28.64,105.51,2-13.18,3.13-26.26,3.87-39.36.59-10.28.37-10.1,10.51-11C958.9,261.2,973.13,259.64,987.65,258.19Zm-547,95.62c-1.46,2.17-3.33,3.74-3.62,5.55-4.56,29.28-9,58.57-13.27,87.9-2.25,15.54-1.68,12.41-14.4,14.94-2.78.56-3.93,1.3-4.43,4.29-3.89,23.6-8,47.17-12.15,70.73-.21,1.24-1.33,2.37-2.17,3.44s-2.52,1.93-2.69,3.05c-.83,5.52-1.28,11.09-1.87,16.72.7.17,1.22.48,1.63.38,15.2-3.73,30.41-7.43,45.55-11.4,1.21-.32,2.68-2.5,2.75-3.88,1-19.71,2-39.43,2.69-59.15.82-24.92,1.51-49.84,1.92-74.76C440.88,392.87,440.64,374.11,440.64,353.81ZM393.12,505.57c1.31-4.87,2.82-9.51,3.75-14.27,1.51-7.68,2.68-15.43,3.9-23.17,2-12.75,1.94-12.88,14.62-15.61,2.87-.62,3.74-1.64,4.16-4.52,3.11-21.39,6.51-42.75,9.73-64.13,1.38-9.18,2.57-18.39,3.93-28.16l-46.63,5.13c-1.57,63.79-3.14,127.21-4.71,190.63a30.93,30.93,0,0,0,1.73-6.79c1.69-12.49,3.31-25,5-37.5C389.1,503.27,390.76,503,393.12,505.57ZM552.33,361.8l-.62.05c-.31,1.13-.71,2.24-.92,3.39-3.81,20.77-7.68,41.52-11.33,62.32-.8,4.54-2.57,7.38-7.47,8.08-3.65.53-7.19,1.78-11,2.79-2.38,15.53-4.67,31.19-7.29,46.8-.43,2.54-2.33,4.84-3.54,7.26l-1.29-.5c-1.36,12.28-2.71,24.57-4.15,37.61l56.93-17.46C558.48,461.59,555.4,411.69,552.33,361.8Zm-59.09-11.51-.44-.17q-6.48,36-13,72c-1.33,7.38-2.85,14.73-3.82,22.16-.47,3.56-2.2,5.54-5.39,5.58-4.93.08-5.57,3.07-6.1,6.93-2.87,21.11-5.9,42.2-8.89,63.29-1.14,8-2.35,16-3.58,24.44,14.48-4,28.17-8.09,42-11.56,5.38-1.34,6.57-3.8,6.28-9.16-1.59-29-2.82-58-4-87C495.21,408,494.27,379.14,493.24,350.29Zm19.33,117.38c1.29-8.74,2.71-16.79,3.61-24.9.89-8,2.77-14.58,12.79-14.07.48,0,1-.36,1.46-.43,3.85-.54,5.48-2.48,6.15-6.6,2.66-16.29,5.9-32.49,8.86-48.73,2.07-11.33,4-22.68,6.09-34.3a14.47,14.47,0,0,0-2.46-.11c-15.46,2.58-30.89,5.42-46.41,7.65-4.46.63-5.53,2.11-5.34,6.38,1.19,26.62,2.12,53.25,3.15,79.88q1.11,28.9,2.3,57.81c.09,2.19.51,4.36.77,6.54,1.88-9.23,3-18.36,4-27.5C508,465.48,509.59,465,512.57,467.67Zm-70.33,79c3.33.25,5.78-.49,6.24-4.89.82-8,2-15.87,3.13-23.79,3.27-22.58,6.73-45.14,9.81-67.74.65-4.77,1.88-8.08,7.28-8.29,2.8-.1,3.86-1.6,4.37-4.49,2.81-16,6-31.95,8.91-47.95,1.49-8.2,2.73-16.45,4-24.68.84-5.27,1.58-10.56,2.45-16.39-13.8,1.89-26.62,3.55-39.39,5.57-1.18.18-2.79,2.69-2.84,4.16-.8,23.89-1.38,47.79-2,71.68-.67,25.59-1.44,51.18-1.94,76.78C442,519.84,442.24,533.1,442.24,546.63ZM791.73,218.09l-2.31-.55c-.59,2.06-1.59,4.11-1.7,6.2-1,19.42-1.66,38.87-2.79,58.28-.66,11.42-.92,11.59-12.18,13.54-4.1.71-5.52,2.31-5.67,6.53-.6,15.85-1.53,31.7-2.61,47.53-.15,2.13-1.83,4.15-2.81,6.22l-1.6-.44v14c15.34-3.86,30.27-7.75,45.28-11.29,3.09-.73,3.29-2.06,2.95-4.62-1.33-10-2.52-19.94-3.74-29.92q-3.9-31.71-7.78-63.41C795.06,246.1,793.41,232.09,791.73,218.09Zm-52.89,5.78c5.39,46,10.72,91.44,16,136.89l2,0c0-9.67.09-19.34-.05-29,0-4,1.1-5.42,4.91-3,.78-11.53,1.62-22.76,2.25-34,.16-2.86.95-4.32,4-4.68,4.18-.47,8.3-1.48,12.81-2.33,1.1-23.08,2.19-45.87,3.3-69.36Zm141.79,53.22c-.59,11-1,21.77-1.84,32.48-.14,1.91-1.63,3.72-2.5,5.58l-1-.38v26.79l55.33-11.46c-9.8-36-19.42-71.28-29.05-106.61a2.52,2.52,0,0,0-1.32,2c-1.28,15-2.63,29.93-3.78,44.9-.21,2.86-1,4.3-4.09,4.6C888.66,275.36,885,276.29,880.63,277.09Zm-85-59.87C801.47,264.11,807.22,310,813,356.15l5.61-1.59c.89-7.54,2.15-14.74,2.51-22,.7-14.31,1-28.65,1.28-43,.2-9,.1-9,9.06-10.84.29-.06.54-.33,1.15-.71,1.2-21.34,2.42-42.9,3.68-65.21Zm45.51-2h-.62c-.17,1.11-.41,2.22-.47,3.34-1.13,19.94-2.3,39.87-3.28,59.81-.18,3.74-1,6.52-5.28,6.54s-4.89,2.18-5,5.86c-.43,17.06-1.17,34.11-1.75,51.17-.12,3.69,0,7.37,0,11.38l46-10.78Zm3.44-3.23c8.5,36.07,16.77,71.22,25,106.36l1.25-.2V296.58h4.67c.47-8.11,1-16.27,1.44-24.81,3.48-.59,6.8-1.65,10.11-1.59,5.38.09,5.82-3.11,6.12-7.19.8-11.24,1.9-22.45,2.77-33.68.54-7.06.87-14.14,1.33-21.78ZM1188.15,308c4.28,12.43,8.35,24.66,12.82,36.74.57,1.53,3.14,3.16,4.88,3.27a99.36,99.36,0,0,0,13.78-.48,8,8,0,0,0,3.43-1.53c2.63-1.73,4.94-4.28,7.8-5.26A77,77,0,0,1,1264.6,337c6.83.76,13.57,2.29,20.83,3.57-4-8.67-7.92-16.92-11.47-25.36-1.42-3.37-3.43-4.41-6.93-4.6-12.42-.69-24.81-2.11-37.23-2.53C1216.2,307.6,1202.57,308,1188.15,308ZM1006.34,133.63c1.76,21.88,3.41,43.31,5.29,64.72.31,3.59-.52,5.13-4.27,4.91-3.37-.19-6.76,0-10.63,0,.12,2.29.19,3.95.29,5.62.61,11.06,1.27,22.13,1.8,33.2a11,11,0,0,1-1,4.06c-.53,1.43-1.83,2.75-1.86,4.14-.05,2.3.66,4.62,1.09,7.19l46.72-2.74ZM1103.55,254c-15-33.48-29.92-66.59-45.33-100.88,1.11,15.45,2.19,29.55,3.1,43.67.47,7.36.33,7.37-7.1,7.62-.27,0-.53.34-1.18.78,1.65,16.15,3.33,32.49,5,48.81Zm166.59,53.19c-2-4.29-4-8-5.5-11.93-1.11-2.95-2.86-3.23-5.54-2.77-6.21,1-12.49,1.68-18.68,2.81-12.14,2.21-24.23,4.64-36.34,7,.06.26.11.51.17.77ZM441.17,587l.68.07,4.44-31.93-1.66-.81c-1.15,1.52-3.25,3-3.3,4.55C441,568.21,441.17,577.59,441.17,587Zm372.7-224.62c1.11,8.1,2.13,15.58,3.16,23.06l1.39-.14v-24Zm-434.78-11,3.12.73a123.61,123.61,0,0,0,.51-24.28Zm676.25-74.62.63-.21c-.38-4.56-.83-9.11-1.1-13.68-.19-3.25-1.63-4.19-5-2.8ZM731.19,199.09l-.8.23q-.54,9.18-1.06,18.37l1.55.6c.72-1.08,2.12-2.2,2-3.23C732.56,209.72,731.81,204.41,731.19,199.09ZM439.89,346l2.38.25q.41-7.38.8-14.77l-.89-.08Q441,338.73,439.89,346Z"/><path class="cls-2" d="M.07,717.76c12.79.64,25.56,1.63,38.35,1.85a875,875,0,0,0,112-5.1,1156.63,1156.63,0,0,0,115.44-18.87c42.94-9.25,85.45-20.06,127.18-33.65,42.72-13.91,85.15-28.71,127.48-43.76,27.26-9.69,54.19-20.37,81.15-30.92,29.33-11.48,58.48-23.4,87.77-35,42.73-16.91,85.43-33.92,128.31-50.44,25.27-9.74,50.67-19.22,76.36-27.74,44.89-14.9,89.84-29.69,135.16-43.2a972.3,972.3,0,0,1,125.93-28.56c31.47-5,63.17-8.9,94.91-11.55,27.87-2.33,56-2,83.92-3.39,7.69-.39,15.26-3,22.92-4.37,2.65-.49,5.4-.49,8.49-.75v5.22c-9.14-.7-12.77.22-22.3,3.42-2-.84-8.51-.17-10.59-.09-28.48,1.16-57,1.92-85.43,3.86-43.09,2.95-85.56,10.31-127.82,19.16-43.19,9-85.77,20.3-127.89,33.38-18.36,5.7-36.83,11.05-55,17.32-24,8.29-47.74,17.15-71.47,26.1Q816.49,509,768.21,527.82c-23.15,9.08-46.07,18.73-69.11,28.08-28.39,11.52-56.74,23.13-85.21,34.44-29.37,11.68-58.68,23.58-88.36,34.41C483.64,640,441.66,655.16,399.28,669c-43.37,14.15-87.29,26.69-132,35.7-33.21,6.69-66.54,13-100.07,17.78a820.39,820.39,0,0,1-141.51,7.68c-8.53-.27-17-.74-25.58-1.11Z"/></g></svg>